# xmcd
# 
# Track frame offsets:
#     150
#     21752
#     38442
#     52440
#     74172
#     91002
#     107327
#     124950
#     142267
# 
# Disc length: 2130
# 
# Revision: 3
# Processed by: cddbd v1.5.2PL0 Copyright (c) Steve Scherf et al.
# Submitted via: BonkEnc v1.0.6
# 
DISCID=81085009
DTITLE=The Gregg Allman Band - Playin' Up A Storm
DYEAR=1977
DGENRE=Southern Rock
TTITLE0=Come And Go Blues
TTITLE1=Let This Be A Lesson To Ya'
TTITLE2=Brightest Smile In Town
TTITLE3=Bring It On Back
TTITLE4=Cryin' Shame
TTITLE5=Sweet Feelin'
TTITLE6=It Ain't No Use
TTITLE7=Matthew's Arrival
TTITLE8=One More Try
EXTD=Polydor - PolyGram Records
EXTT0=
EXTT1=
EXTT2=
EXTT3=
EXTT4=
EXTT5=
EXTT6=
EXTT7=
EXTT8=
PLAYORDER=
